<svg width="126" height="32" viewBox="0 0 126 32" fill="none" xmlns="http://www.w3.org/2000/svg">
<path d="M1.78714 23.5735C1.31474 22.6386 0.927717 21.643 0.63745 20.6109C0.426864 19.8763 0.273193 19.1174 0.165054 18.3404C0.0569152 17.5693 0 16.7862 0 16.003C0 15.7845 0.00569152 15.5174 0.0170746 15.2077V15.1713C0.227661 10.9277 1.97496 7.1273 4.67843 4.39537C7.37051 1.66951 11.0017 0 14.9971 0C18.9926 0 22.6295 1.66951 25.3216 4.39537C28.025 7.1273 29.7723 10.9277 29.9772 15.1652C29.9829 15.2685 29.9886 15.4081 29.9943 15.5781C30 15.8209 30.0057 15.9605 30.0057 16.003C30.0057 16.7862 29.9488 17.5693 29.8463 18.3343C29.7439 19.0871 29.5902 19.8277 29.391 20.5441C29.2715 21.0905 28.8105 21.4973 28.2584 21.4973H14.1946V21.4912C14.1207 21.4912 14.041 21.4851 13.967 21.4669C12.7547 21.2058 11.6961 20.5077 10.9505 19.5303C10.2106 18.565 9.77233 17.3386 9.77233 16.003C9.77233 14.4671 10.3586 13.0708 11.3034 12.063C12.2538 11.0491 13.5629 10.4238 15.0028 10.4238C16.2777 10.4238 17.4445 10.9095 18.3551 11.723C19.0267 12.324 19.5561 13.1011 19.8805 13.9936H22.6238C22.2481 12.3787 21.4343 10.9459 20.3244 9.84709C18.9243 8.46898 17.0575 7.63119 14.9971 7.63119C12.8514 7.63119 10.9163 8.54183 9.49914 10.0231C9.48207 10.0414 9.46499 10.0656 9.44223 10.0839C8.01935 11.6016 7.14285 13.69 7.14285 16.003C7.14285 18.3161 8.01935 20.4106 9.44223 21.9222C10.8594 23.4339 12.823 24.3688 14.9915 24.3688C15.2703 24.3688 15.5208 24.3567 15.7427 24.3385C15.959 24.3142 16.181 24.2838 16.4086 24.2353C16.4997 24.211 16.5965 24.1988 16.6932 24.1988H25.6289V24.2049C25.8907 24.2049 26.1525 24.296 26.3688 24.4902C26.8583 24.9273 26.9266 25.7044 26.5168 26.2265C25.1167 28.0235 23.3523 29.4866 21.3489 30.4883C19.4138 31.4536 17.2567 32 14.9915 32C12.7262 32 10.5748 31.4597 8.63403 30.4883C6.63062 29.4866 4.86625 28.0235 3.46044 26.2265C2.82299 25.4069 2.25953 24.5145 1.78714 23.5735ZM2.85714 19.9006C3.10188 20.7748 3.43198 21.6126 3.8247 22.4018C4.23449 23.2093 4.71258 23.9681 5.24758 24.6541C6.43141 26.1719 7.92259 27.4043 9.61866 28.2542C11.2464 29.0677 13.0677 29.5231 14.9915 29.5231C16.9209 29.5231 18.7422 29.0677 20.3699 28.2542C21.2294 27.8232 22.0319 27.295 22.7718 26.6818H16.7957C16.5339 26.7304 16.255 26.7729 15.9647 26.8033C15.6175 26.8397 15.2931 26.8579 14.9971 26.8579C12.1912 26.8579 9.64712 25.6437 7.80307 23.6767C5.95902 21.7097 4.82071 18.996 4.82071 16.003C4.82071 13.004 5.95902 10.2903 7.80307 8.32935C7.82584 8.30507 7.8486 8.28078 7.87137 8.26257C9.70973 6.33808 12.2254 5.14817 14.9971 5.14817C17.6551 5.14817 20.0797 6.24094 21.8953 8.0258C23.7222 9.8228 24.9345 12.3301 25.1451 15.1349C25.1963 15.8148 24.7183 16.4159 24.0751 16.4644C24.0467 16.4644 24.0125 16.4705 23.9841 16.4705H19.004C18.4007 16.4705 17.9055 15.9848 17.8486 15.3595C17.712 14.6674 17.3591 14.0603 16.864 13.6172C16.3631 13.1679 15.7143 12.9008 15.0028 12.9008C14.2003 12.9008 13.4718 13.2468 12.9482 13.8054C12.4246 14.3639 12.0945 15.141 12.0945 16.003C12.0945 16.7498 12.3392 17.4297 12.749 17.964C13.1417 18.48 13.6824 18.8564 14.2971 19.0203H27.3591C27.4331 18.6803 27.4957 18.3343 27.5413 17.9822C27.6266 17.3447 27.6722 16.683 27.6722 16.0091V15.657C27.6722 15.572 27.6665 15.4506 27.6551 15.2988C27.4843 11.723 26.0045 8.51148 23.7166 6.19844C21.4513 3.89148 18.3836 2.48302 14.9971 2.48302C11.6164 2.48302 8.54297 3.89148 6.27205 6.19237C3.98406 8.50541 2.50996 11.7169 2.33352 15.2927V15.3109C2.32783 15.4931 2.32214 15.7238 2.32214 16.003C2.32214 16.683 2.36767 17.3447 2.45304 17.9822C2.5498 18.6378 2.6807 19.2814 2.85714 19.9006Z" fill="url(#paint0_linear_314_422)"/>
<path d="M36 25.1926V9.6001H45.7585V11.97H38.7166V16.2003H45.2471V18.5702H38.7166V22.8227H45.8117V25.1926H36Z" fill="white"/>
<path d="M50.5843 13.498L52.8535 17.817L55.1653 13.498H57.9671L54.5793 19.3452L58.031 25.1924H55.2398L52.8641 20.9842L50.5098 25.1924H47.6973L51.117 19.3452L47.7718 13.498H50.5843Z" fill="white"/>
<path d="M60.0234 29.5778V13.498H62.6335V15.436H62.7827C62.9212 15.148 63.1129 14.849 63.3579 14.5279C63.603 14.2067 63.9439 13.9299 64.37 13.6973C64.7961 13.4647 65.3395 13.354 66 13.354C66.8735 13.354 67.6512 13.5866 68.3544 14.0406C69.0575 14.4947 69.6115 15.1813 70.0269 16.0783C70.4424 16.9753 70.6448 18.0716 70.6448 19.3673C70.6448 20.6519 70.4424 21.7483 70.0376 22.6453C69.6328 23.5423 69.0788 24.2289 68.3863 24.7051C67.6832 25.1813 66.8949 25.4138 66.0106 25.4138C65.3608 25.4138 64.8281 25.3031 64.402 25.0816C63.9758 24.8601 63.6349 24.5833 63.3792 24.2732C63.1236 23.9521 62.9212 23.653 62.7827 23.3762H62.6761V29.5999H60.0234V29.5778ZM62.6229 19.3452C62.6229 20.0982 62.7294 20.7627 62.9318 21.3275C63.1342 21.8922 63.4432 22.3352 63.8373 22.6564C64.2315 22.9775 64.7109 23.1326 65.2649 23.1326C65.8508 23.1326 66.3409 22.9664 66.7351 22.6453C67.1292 22.3131 67.4275 21.8701 67.6299 21.2942C67.8323 20.7184 67.9389 20.0761 67.9389 19.3452C67.9389 18.6143 67.843 17.972 67.6406 17.4072C67.4382 16.8424 67.1399 16.3994 66.7457 16.0783C66.3515 15.7571 65.8615 15.6021 65.2649 15.6021C64.7003 15.6021 64.2209 15.7571 63.8267 16.0672C63.4325 16.3773 63.1342 16.8092 62.9318 17.374C62.7187 17.9277 62.6229 18.5921 62.6229 19.3452Z" fill="white"/>
<path d="M77.8144 25.4249C76.7171 25.4249 75.7583 25.1702 74.9593 24.6719C74.1497 24.1735 73.5318 23.4648 73.0843 22.5678C72.6475 21.6597 72.4238 20.6076 72.4238 19.4005C72.4238 18.1934 72.6475 17.1303 73.0843 16.2222C73.5211 15.3141 74.1497 14.6054 74.9593 14.1071C75.769 13.6087 76.7171 13.354 77.8144 13.354C78.9117 13.354 79.8705 13.6087 80.6695 14.1071C81.4792 14.6054 82.0971 15.3141 82.5445 16.2222C82.9813 17.1303 83.205 18.1934 83.205 19.4005C83.205 20.6076 82.9813 21.6597 82.5445 22.5678C82.1077 23.4759 81.4792 24.1735 80.6695 24.6719C79.8599 25.1702 78.9117 25.4249 77.8144 25.4249ZM77.8251 23.2101C78.4217 23.2101 78.9224 23.044 79.3166 22.7007C79.7107 22.3574 80.0197 21.8922 80.2114 21.3164C80.4032 20.7405 80.5097 20.0982 80.5097 19.3784C80.5097 18.6586 80.4138 18.0163 80.2114 17.4293C80.009 16.8535 79.7107 16.3883 79.3166 16.045C78.9117 15.7017 78.4217 15.5246 77.8251 15.5246C77.2178 15.5246 76.7065 15.7017 76.3017 16.045C75.8968 16.3883 75.5985 16.8535 75.3961 17.4293C75.1937 18.0052 75.0978 18.6586 75.0978 19.3784C75.0978 20.0871 75.1937 20.7294 75.3961 21.3164C75.5985 21.8922 75.8968 22.3574 76.3017 22.7007C76.7065 23.044 77.2178 23.2101 77.8251 23.2101Z" fill="white"/>
<path d="M94.87 13.498L90.7045 25.1924H88.9467L84.7812 13.498H86.6562L89.767 22.8226H89.8842L92.995 13.498H94.87Z" fill="white"/>
<path d="M101.465 25.4361C100.378 25.4361 99.4516 25.1814 98.6633 24.683C97.8749 24.1847 97.2783 23.487 96.8522 22.5789C96.426 21.6819 96.2236 20.6299 96.2236 19.4338C96.2236 18.2378 96.4367 17.1747 96.8522 16.2666C97.2783 15.3475 97.8642 14.6387 98.6206 14.1182C99.377 13.5977 100.272 13.343 101.284 13.343C101.87 13.343 102.445 13.4427 103.02 13.6531C103.596 13.8524 104.107 14.1847 104.576 14.6387C105.045 15.0927 105.417 15.6908 105.694 16.4438C105.971 17.1858 106.11 18.1049 106.11 19.2013V19.9654H97.4381V18.415H104.352C104.352 17.7506 104.224 17.1636 103.979 16.6431C103.724 16.1227 103.372 15.7129 102.914 15.4139C102.456 15.1149 101.913 14.9599 101.284 14.9599C100.592 14.9599 100.006 15.137 99.5049 15.4914C99.0042 15.8458 98.6206 16.2998 98.3543 16.8646C98.088 17.4294 97.9495 18.0274 97.9495 18.6808V19.7218C97.9495 20.6077 98.0986 21.3497 98.3969 21.9698C98.6952 22.5789 99.1 23.0441 99.6327 23.3652C100.165 23.6864 100.773 23.8414 101.476 23.8414C101.934 23.8414 102.339 23.775 102.712 23.6421C103.084 23.5092 103.404 23.3098 103.67 23.033C103.937 22.7561 104.15 22.4239 104.288 22.0141L105.961 22.5014C105.78 23.0883 105.492 23.6088 105.077 24.0518C104.661 24.4948 104.15 24.8381 103.542 25.0928C102.903 25.3143 102.221 25.4361 101.465 25.4361Z" fill="white"/>
<path d="M110.489 18.1603V25.1925H108.763V13.4981H110.435V15.3253H110.584C110.851 14.7273 111.245 14.2511 111.788 13.8857C112.321 13.5202 113.024 13.343 113.866 13.343C114.633 13.343 115.293 13.5091 115.868 13.8303C116.444 14.1514 116.881 14.6387 117.2 15.2921C117.52 15.9455 117.68 16.765 117.68 17.7616V25.1925H115.954V17.8835C115.954 16.9643 115.719 16.2445 115.261 15.7351C114.803 15.2146 114.175 14.9599 113.376 14.9599C112.822 14.9599 112.332 15.0817 111.895 15.3364C111.458 15.58 111.117 15.9455 110.872 16.4217C110.606 16.8978 110.489 17.4737 110.489 18.1603Z" fill="white"/>
<path d="M125.722 13.4981V15.0263H119.895V13.4981H125.722ZM121.588 10.6963H123.314V21.848C123.314 22.3575 123.389 22.734 123.527 22.9887C123.676 23.2434 123.858 23.4095 124.081 23.487C124.305 23.5646 124.55 23.6089 124.806 23.6089C124.997 23.6089 125.157 23.5978 125.274 23.5756C125.392 23.5535 125.498 23.5313 125.573 23.5203L125.924 25.1371C125.807 25.1814 125.647 25.2257 125.434 25.2811C125.221 25.3254 124.955 25.3586 124.635 25.3586C124.145 25.3586 123.666 25.2478 123.208 25.0264C122.739 24.8049 122.355 24.4726 122.047 24.0297C121.738 23.5867 121.588 23.0219 121.588 22.3353V10.6963Z" fill="white"/>
<defs>
<linearGradient id="paint0_linear_314_422" x1="0" y1="16.0011" x2="30.0021" y2="16.0011" gradientUnits="userSpaceOnUse">
<stop stop-color="#21B3F7"/>
<stop offset="0.526042" stop-color="#DB3A64"/>
<stop offset="1" stop-color="#FF9F03"/>
</linearGradient>
</defs>
</svg>
