<svg width="170" height="40" viewBox="0 0 170 40" fill="none" xmlns="http://www.w3.org/2000/svg">
<g clip-path="url(#clip0_47_72)">
<path d="M2.38285 29.4669C1.75299 28.2982 1.23696 27.0537 0.849933 25.7636C0.569152 24.8454 0.364257 23.8968 0.220072 22.9254C0.0758869 21.9617 0 20.9827 0 20.0038C0 19.7306 0.00758869 19.3967 0.0227661 19.0097V18.9641C0.303548 13.6596 2.63327 8.90913 6.2379 5.49421C9.82735 2.08689 14.6689 0 19.9962 0C25.3235 0 30.1726 2.08689 33.7621 5.49421C37.3667 8.90913 39.6964 13.6596 39.9696 18.9566C39.9772 19.0856 39.9848 19.2601 39.9924 19.4726C40 19.7761 40.0076 19.9507 40.0076 20.0038C40.0076 20.9827 39.9317 21.9617 39.7951 22.9179C39.6585 23.8589 39.4536 24.7847 39.188 25.6801C39.0286 26.3631 38.4139 26.8716 37.6778 26.8716H18.9262V26.864C18.8275 26.864 18.7213 26.8564 18.6226 26.8336C17.0063 26.5073 15.5948 25.6346 14.6006 24.4128C13.6141 23.2062 13.0298 21.6733 13.0298 20.0038C13.0298 18.0839 13.8114 16.3385 15.0711 15.0787C16.3384 13.8114 18.0838 13.0298 20.0038 13.0298C21.7037 13.0298 23.2593 13.6369 24.4735 14.6538C25.369 15.405 26.0747 16.3764 26.5073 17.4919H30.165C29.6642 15.4733 28.579 13.6824 27.0992 12.3089C25.2324 10.5862 22.7433 9.53899 19.9962 9.53899C17.1353 9.53899 14.5551 10.6773 12.6655 12.5289C12.6428 12.5517 12.62 12.5821 12.5896 12.6048C10.6925 14.502 9.5238 17.1125 9.5238 20.0038C9.5238 22.8951 10.6925 25.5132 12.5896 27.4028C14.4792 29.2924 17.0973 30.461 19.9886 30.461C20.3605 30.461 20.6944 30.4458 20.9903 30.4231C21.2787 30.3927 21.5746 30.3548 21.8782 30.2941C21.9996 30.2637 22.1286 30.2485 22.2576 30.2485H34.1719V30.2561C34.5209 30.2561 34.87 30.37 35.1584 30.6128C35.811 31.1592 35.9021 32.1305 35.3557 32.7832C33.4889 35.0294 31.1364 36.8583 28.4652 38.1104C25.885 39.317 23.0089 40 19.9886 40C16.9683 40 14.0998 39.3246 11.512 38.1104C8.84082 36.8583 6.48833 35.0294 4.61392 32.7832C3.76399 31.7587 3.01271 30.6431 2.38285 29.4669ZM3.80952 24.8757C4.13584 25.9685 4.57598 27.0157 5.0996 28.0023C5.64598 29.0116 6.28343 29.9602 6.99677 30.8177C8.57522 32.7149 10.5635 34.2554 12.8249 35.3178C14.9952 36.3347 17.4236 36.9038 19.9886 36.9038C22.5612 36.9038 24.9896 36.3347 27.1599 35.3178C28.3058 34.779 29.3758 34.1188 30.3623 33.3523H22.3942C22.0451 33.413 21.6733 33.4661 21.2863 33.5041C20.8234 33.5496 20.3908 33.5724 19.9962 33.5724C16.255 33.5724 12.8628 32.0546 10.4041 29.5959C7.94536 27.1372 6.42762 23.745 6.42762 20.0038C6.42762 16.255 7.94536 12.8628 10.4041 10.4117C10.4344 10.3813 10.4648 10.351 10.4952 10.3282C12.9463 7.9226 16.3005 6.43521 19.9962 6.43521C23.5401 6.43521 26.7729 7.80118 29.1937 10.0323C31.6297 12.2785 33.246 15.4126 33.5268 18.9186C33.5951 19.7685 32.9577 20.5198 32.1002 20.5805C32.0622 20.5805 32.0167 20.5881 31.9787 20.5881H25.3386C24.5342 20.5881 23.874 19.981 23.7981 19.1994C23.616 18.3343 23.1455 17.5754 22.4853 17.0214C21.8175 16.4599 20.9524 16.126 20.0038 16.126C18.9338 16.126 17.9624 16.5585 17.2643 17.2567C16.5661 17.9548 16.126 18.9262 16.126 20.0038C16.126 20.9372 16.4523 21.7871 16.9987 22.4549C17.5223 23.1 18.2432 23.5705 19.0628 23.7754H36.4788C36.5775 23.3504 36.661 22.9179 36.7217 22.4777C36.8355 21.6809 36.8962 20.8537 36.8962 20.0114V19.5712C36.8962 19.465 36.8886 19.3132 36.8734 19.1235C36.6458 14.6538 34.6727 10.6393 31.6221 7.74806C28.6018 4.86435 24.5115 3.10378 19.9962 3.10378C15.4885 3.10378 11.3906 4.86435 8.36273 7.74047C5.31208 10.6318 3.34661 14.6462 3.11136 19.1159V19.1387C3.10377 19.3663 3.09618 19.6547 3.09618 20.0038C3.09618 20.8537 3.15689 21.6809 3.27072 22.4777C3.39973 23.2973 3.57427 24.1017 3.80952 24.8757Z" fill="url(#paint0_linear_47_72)"/>
</g>
<path d="M50 28.9999V9H63.0113V12.0398H53.6221V17.4659H62.3295V20.5056H53.6221V25.9601H63.0823V28.9999H50Z" fill="#111111"/>
<path d="M69.4461 14L72.4716 19.5397L75.554 14H79.2898L74.7728 21.5L79.375 28.9999H75.6535L72.4859 23.6022L69.3467 28.9999H65.5967L70.1563 21.5L65.6961 14H69.4461Z" fill="#111111"/>
<path d="M82.0312 34.6247V13.9998H85.5113V16.4856H85.7102C85.8949 16.1163 86.1505 15.7328 86.4773 15.3209C86.804 14.9089 87.2585 14.5538 87.8267 14.2555C88.3949 13.9572 89.1193 13.8152 90 13.8152C91.1647 13.8152 92.2017 14.1135 93.1392 14.6959C94.0766 15.2782 94.8153 16.1589 95.3693 17.3095C95.9232 18.46 96.1931 19.8663 96.1931 21.5282C96.1931 23.1759 95.9232 24.5822 95.3835 25.7327C94.8437 26.8833 94.1051 27.764 93.1818 28.3748C92.2443 28.9856 91.1931 29.2839 90.0142 29.2839C89.1477 29.2839 88.4375 29.1418 87.8693 28.8577C87.3011 28.5736 86.8466 28.2185 86.5057 27.8208C86.1648 27.4089 85.8949 27.0254 85.7102 26.6702H85.5682V34.6532H82.0312V34.6247ZM85.4971 21.4998C85.4971 22.4657 85.6392 23.318 85.9091 24.0424C86.179 24.7668 86.5909 25.335 87.1165 25.7469C87.642 26.1589 88.2812 26.3577 89.0199 26.3577C89.8011 26.3577 90.4545 26.1447 90.9801 25.7327C91.5056 25.3066 91.9034 24.7384 92.1732 23.9998C92.4431 23.2612 92.5852 22.4373 92.5852 21.4998C92.5852 20.5623 92.4573 19.7385 92.1875 19.014C91.9176 18.2896 91.5198 17.7214 90.9943 17.3095C90.4687 16.8976 89.8153 16.6987 89.0199 16.6987C88.267 16.6987 87.6278 16.8976 87.1023 17.2953C86.5767 17.693 86.179 18.247 85.9091 18.9714C85.625 19.6816 85.4971 20.5339 85.4971 21.4998Z" fill="#111111"/>
<path d="M105.753 29.2981C104.29 29.2981 103.011 28.9714 101.946 28.3322C100.867 27.693 100.043 26.7839 99.4461 25.6333C98.8637 24.4685 98.5654 23.1191 98.5654 21.5708C98.5654 20.0225 98.8637 18.6589 99.4461 17.4941C100.028 16.3294 100.867 15.4203 101.946 14.7811C103.026 14.1419 104.29 13.8152 105.753 13.8152C107.216 13.8152 108.494 14.1419 109.56 14.7811C110.639 15.4203 111.463 16.3294 112.06 17.4941C112.642 18.6589 112.94 20.0225 112.94 21.5708C112.94 23.1191 112.642 24.4685 112.06 25.6333C111.477 26.7981 110.639 27.693 109.56 28.3322C108.48 28.9714 107.216 29.2981 105.753 29.2981ZM105.767 26.4572C106.563 26.4572 107.23 26.2441 107.756 25.8038C108.281 25.3634 108.693 24.7668 108.949 24.0282C109.205 23.2896 109.347 22.4657 109.347 21.5424C109.347 20.6191 109.219 19.7953 108.949 19.0424C108.679 18.3038 108.281 17.7072 107.756 17.2669C107.216 16.8265 106.563 16.5993 105.767 16.5993C104.957 16.5993 104.276 16.8265 103.736 17.2669C103.196 17.7072 102.798 18.3038 102.528 19.0424C102.259 19.7811 102.131 20.6191 102.131 21.5424C102.131 22.4515 102.259 23.2754 102.528 24.0282C102.798 24.7668 103.196 25.3634 103.736 25.8038C104.276 26.2441 104.957 26.4572 105.767 26.4572Z" fill="#111111"/>
<path d="M128.494 14L122.94 28.9999H120.596L115.042 14H117.542L121.69 25.9602H121.846L125.994 14H128.494Z" fill="#111111"/>
<path d="M137.286 29.3123C135.838 29.3123 134.602 28.9856 133.551 28.3464C132.5 27.7072 131.704 26.8123 131.136 25.6476C130.568 24.497 130.298 23.1476 130.298 21.6135C130.298 20.0794 130.582 18.7158 131.136 17.551C131.704 16.372 132.485 15.4629 133.494 14.7953C134.502 14.1277 135.696 13.801 137.045 13.801C137.826 13.801 138.593 13.9289 139.36 14.1988C140.127 14.4544 140.809 14.8806 141.434 15.4629C142.059 16.0453 142.556 16.8124 142.926 17.7783C143.295 18.73 143.48 19.909 143.48 21.3152V22.2953H131.917V20.3067H141.136C141.136 19.4544 140.965 18.7016 140.639 18.034C140.298 17.3663 139.829 16.8408 139.218 16.4573C138.607 16.0737 137.883 15.8749 137.045 15.8749C136.122 15.8749 135.34 16.1022 134.673 16.5567C134.005 17.0112 133.494 17.5936 133.139 18.318C132.784 19.0425 132.599 19.8095 132.599 20.6476V21.9828C132.599 23.1192 132.798 24.0709 133.196 24.8663C133.593 25.6476 134.133 26.2441 134.843 26.6561C135.554 27.068 136.363 27.2669 137.301 27.2669C137.911 27.2669 138.451 27.1816 138.948 27.0112C139.446 26.8407 139.872 26.5851 140.227 26.2299C140.582 25.8748 140.866 25.4487 141.051 24.9231L143.281 25.5481C143.039 26.301 142.656 26.9686 142.102 27.5368C141.548 28.1049 140.866 28.5453 140.056 28.872C139.204 29.1561 138.295 29.3123 137.286 29.3123Z" fill="#111111"/>
<path d="M149.318 19.98V28.9998H147.017V13.9999H149.247V16.3436H149.446C149.801 15.5766 150.326 14.9658 151.051 14.497C151.761 14.0283 152.698 13.801 153.821 13.801C154.843 13.801 155.724 14.0141 156.491 14.426C157.258 14.838 157.84 15.4629 158.267 16.301C158.693 17.1391 158.906 18.1902 158.906 19.4686V28.9998H156.605V19.6249C156.605 18.4459 156.292 17.5226 155.681 16.8692C155.071 16.2016 154.232 15.8749 153.167 15.8749C152.429 15.8749 151.775 16.0311 151.193 16.3578C150.61 16.6703 150.156 17.1391 149.829 17.7499C149.474 18.3607 149.318 19.0993 149.318 19.98Z" fill="#111111"/>
<path d="M169.63 14V15.9602H161.86V14H169.63ZM164.119 10.4062H166.42V24.7102C166.42 25.3636 166.519 25.8465 166.704 26.1732C166.903 26.4999 167.144 26.713 167.443 26.8124C167.741 26.9119 168.068 26.9687 168.409 26.9687C168.664 26.9687 168.877 26.9545 169.034 26.9261C169.19 26.8976 169.332 26.8692 169.431 26.855L169.9 28.9289C169.744 28.9857 169.531 29.0425 169.247 29.1136C168.963 29.1704 168.607 29.213 168.181 29.213C167.528 29.213 166.889 29.0709 166.278 28.7868C165.653 28.5028 165.142 28.0766 164.73 27.5084C164.318 26.9403 164.119 26.2158 164.119 25.3352V10.4062Z" fill="#111111"/>
<defs>
<linearGradient id="paint0_linear_47_72" x1="20.0038" y1="0" x2="20.0038" y2="40" gradientUnits="userSpaceOnUse">
<stop stop-color="#F7426F"/>
<stop offset="1" stop-color="#F87A58"/>
</linearGradient>
<clipPath id="clip0_47_72">
<rect width="40" height="40" fill="white"/>
</clipPath>
</defs>
</svg>
