<svg width="31" height="32" viewBox="0 0 31 32" fill="none" xmlns="http://www.w3.org/2000/svg">
<path d="M1.78714 23.5735C1.31474 22.6386 0.927717 21.643 0.63745 20.6109C0.426864 19.8763 0.273193 19.1174 0.165054 18.3404C0.0569152 17.5693 0 16.7862 0 16.003C0 15.7845 0.00569152 15.5174 0.0170746 15.2077V15.1713C0.227661 10.9277 1.97496 7.1273 4.67843 4.39537C7.37051 1.66951 11.0017 0 14.9971 0C18.9926 0 22.6295 1.66951 25.3216 4.39537C28.025 7.1273 29.7723 10.9277 29.9772 15.1652C29.9829 15.2685 29.9886 15.4081 29.9943 15.5781C30 15.8209 30.0057 15.9605 30.0057 16.003C30.0057 16.7862 29.9488 17.5693 29.8463 18.3343C29.7439 19.0871 29.5902 19.8277 29.391 20.5441C29.2715 21.0905 28.8105 21.4973 28.2584 21.4973H14.1946V21.4912C14.1207 21.4912 14.041 21.4851 13.967 21.4669C12.7547 21.2058 11.6961 20.5077 10.9505 19.5303C10.2106 18.565 9.77233 17.3386 9.77233 16.003C9.77233 14.4671 10.3586 13.0708 11.3034 12.063C12.2538 11.0491 13.5629 10.4238 15.0028 10.4238C16.2777 10.4238 17.4445 10.9095 18.3551 11.723C19.0267 12.324 19.5561 13.1011 19.8805 13.9936H22.6238C22.2481 12.3787 21.4343 10.9459 20.3244 9.84709C18.9243 8.46898 17.0575 7.63119 14.9971 7.63119C12.8514 7.63119 10.9163 8.54183 9.49914 10.0231C9.48207 10.0414 9.46499 10.0656 9.44223 10.0839C8.01935 11.6016 7.14285 13.69 7.14285 16.003C7.14285 18.3161 8.01935 20.4106 9.44223 21.9222C10.8594 23.4339 12.823 24.3688 14.9915 24.3688C15.2703 24.3688 15.5208 24.3567 15.7427 24.3385C15.959 24.3142 16.181 24.2838 16.4086 24.2353C16.4997 24.211 16.5965 24.1988 16.6932 24.1988H25.6289V24.2049C25.8907 24.2049 26.1525 24.296 26.3688 24.4902C26.8583 24.9273 26.9266 25.7044 26.5168 26.2265C25.1167 28.0235 23.3523 29.4866 21.3489 30.4883C19.4138 31.4536 17.2567 32 14.9915 32C12.7262 32 10.5748 31.4597 8.63403 30.4883C6.63062 29.4866 4.86625 28.0235 3.46044 26.2265C2.82299 25.4069 2.25953 24.5145 1.78714 23.5735ZM2.85714 19.9006C3.10188 20.7748 3.43198 21.6126 3.8247 22.4018C4.23449 23.2093 4.71258 23.9681 5.24758 24.6541C6.43141 26.1719 7.92259 27.4043 9.61866 28.2542C11.2464 29.0677 13.0677 29.5231 14.9915 29.5231C16.9209 29.5231 18.7422 29.0677 20.3699 28.2542C21.2294 27.8232 22.0319 27.295 22.7718 26.6818H16.7957C16.5339 26.7304 16.255 26.7729 15.9647 26.8033C15.6175 26.8397 15.2931 26.8579 14.9971 26.8579C12.1912 26.8579 9.64712 25.6437 7.80307 23.6767C5.95902 21.7097 4.82071 18.996 4.82071 16.003C4.82071 13.004 5.95902 10.2903 7.80307 8.32935C7.82584 8.30507 7.8486 8.28078 7.87137 8.26257C9.70973 6.33808 12.2254 5.14817 14.9971 5.14817C17.6551 5.14817 20.0797 6.24094 21.8953 8.0258C23.7222 9.8228 24.9345 12.3301 25.1451 15.1349C25.1963 15.8148 24.7183 16.4159 24.0751 16.4644C24.0467 16.4644 24.0125 16.4705 23.9841 16.4705H19.004C18.4007 16.4705 17.9055 15.9848 17.8486 15.3595C17.712 14.6674 17.3591 14.0603 16.864 13.6172C16.3631 13.1679 15.7143 12.9008 15.0028 12.9008C14.2003 12.9008 13.4718 13.2468 12.9482 13.8054C12.4246 14.3639 12.0945 15.141 12.0945 16.003C12.0945 16.7498 12.3392 17.4297 12.749 17.964C13.1417 18.48 13.6824 18.8564 14.2971 19.0203H27.3591C27.4331 18.6803 27.4957 18.3343 27.5412 17.9822C27.6266 17.3447 27.6722 16.683 27.6722 16.0091V15.657C27.6722 15.572 27.6665 15.4506 27.6551 15.2988C27.4843 11.723 26.0045 8.51148 23.7166 6.19844C21.4513 3.89148 18.3836 2.48302 14.9971 2.48302C11.6164 2.48302 8.54297 3.89148 6.27205 6.19237C3.98406 8.50541 2.50996 11.7169 2.33352 15.2927V15.3109C2.32783 15.4931 2.32214 15.7238 2.32214 16.003C2.32214 16.683 2.36767 17.3447 2.45304 17.9822C2.5498 18.6378 2.6807 19.2814 2.85714 19.9006Z" fill="url(#paint0_linear_231_2222)"/>
<defs>
<linearGradient id="paint0_linear_231_2222" x1="0" y1="16.0011" x2="30.0021" y2="16.0011" gradientUnits="userSpaceOnUse">
<stop stop-color="#21B3F7"/>
<stop offset="0.526042" stop-color="#DB3A64"/>
<stop offset="1" stop-color="#FF9F03"/>
</linearGradient>
</defs>
</svg>
