<svg width="170" height="40" viewBox="0 0 170 40" fill="none" xmlns="http://www.w3.org/2000/svg">
<g clip-path="url(#clip0_89_230)">
<path d="M2.38285 29.4669C1.75299 28.2982 1.23696 27.0537 0.849933 25.7636C0.569152 24.8454 0.364257 23.8968 0.220072 22.9254C0.0758869 21.9617 0 20.9827 0 20.0038C0 19.7306 0.00758869 19.3967 0.0227661 19.0097V18.9641C0.303548 13.6596 2.63327 8.90913 6.2379 5.49421C9.82735 2.08689 14.6689 0 19.9962 0C25.3235 0 30.1726 2.08689 33.7621 5.49421C37.3667 8.90913 39.6964 13.6596 39.9696 18.9566C39.9772 19.0856 39.9848 19.2601 39.9924 19.4726C40 19.7761 40.0076 19.9507 40.0076 20.0038C40.0076 20.9827 39.9317 21.9617 39.7951 22.9179C39.6585 23.8589 39.4536 24.7847 39.188 25.6801C39.0286 26.3631 38.4139 26.8716 37.6778 26.8716H18.9262V26.864C18.8275 26.864 18.7213 26.8564 18.6226 26.8336C17.0063 26.5073 15.5948 25.6346 14.6006 24.4128C13.6141 23.2062 13.0298 21.6733 13.0298 20.0038C13.0298 18.0839 13.8114 16.3385 15.0711 15.0787C16.3384 13.8114 18.0838 13.0298 20.0038 13.0298C21.7037 13.0298 23.2593 13.6369 24.4735 14.6538C25.369 15.405 26.0747 16.3764 26.5073 17.4919H30.165C29.6642 15.4733 28.579 13.6824 27.0992 12.3089C25.2324 10.5862 22.7433 9.53899 19.9962 9.53899C17.1353 9.53899 14.5551 10.6773 12.6655 12.5289C12.6428 12.5517 12.62 12.5821 12.5896 12.6048C10.6925 14.502 9.5238 17.1125 9.5238 20.0038C9.5238 22.8951 10.6925 25.5132 12.5896 27.4028C14.4792 29.2924 17.0973 30.461 19.9886 30.461C20.3605 30.461 20.6944 30.4458 20.9903 30.4231C21.2787 30.3927 21.5746 30.3548 21.8782 30.2941C21.9996 30.2637 22.1286 30.2485 22.2576 30.2485H34.1719V30.2561C34.5209 30.2561 34.87 30.37 35.1584 30.6128C35.811 31.1592 35.9021 32.1305 35.3557 32.7832C33.4889 35.0294 31.1364 36.8583 28.4652 38.1104C25.885 39.317 23.0089 40 19.9886 40C16.9683 40 14.0998 39.3246 11.512 38.1104C8.84082 36.8583 6.48833 35.0294 4.61392 32.7832C3.76399 31.7587 3.01271 30.6431 2.38285 29.4669ZM3.80952 24.8757C4.13584 25.9685 4.57598 27.0157 5.0996 28.0023C5.64598 29.0116 6.28343 29.9602 6.99677 30.8177C8.57522 32.7149 10.5635 34.2554 12.8249 35.3178C14.9952 36.3347 17.4236 36.9038 19.9886 36.9038C22.5612 36.9038 24.9896 36.3347 27.1599 35.3178C28.3058 34.779 29.3758 34.1188 30.3623 33.3523H22.3942C22.0451 33.413 21.6733 33.4661 21.2863 33.5041C20.8234 33.5496 20.3908 33.5724 19.9962 33.5724C16.255 33.5724 12.8628 32.0546 10.4041 29.5959C7.94536 27.1372 6.42762 23.745 6.42762 20.0038C6.42762 16.255 7.94536 12.8628 10.4041 10.4117C10.4344 10.3813 10.4648 10.351 10.4952 10.3282C12.9463 7.9226 16.3005 6.43521 19.9962 6.43521C23.5401 6.43521 26.7729 7.80118 29.1937 10.0323C31.6297 12.2785 33.246 15.4126 33.5268 18.9186C33.5951 19.7685 32.9577 20.5198 32.1002 20.5805C32.0622 20.5805 32.0167 20.5881 31.9787 20.5881H25.3386C24.5342 20.5881 23.874 19.981 23.7981 19.1994C23.616 18.3343 23.1455 17.5754 22.4853 17.0214C21.8175 16.4599 20.9524 16.126 20.0038 16.126C18.9338 16.126 17.9624 16.5585 17.2643 17.2567C16.5661 17.9548 16.126 18.9262 16.126 20.0038C16.126 20.9372 16.4523 21.7871 16.9987 22.4549C17.5223 23.1 18.2432 23.5705 19.0628 23.7754H36.4788C36.5775 23.3504 36.661 22.9179 36.7217 22.4777C36.8355 21.6809 36.8962 20.8537 36.8962 20.0114V19.5712C36.8962 19.465 36.8886 19.3132 36.8734 19.1235C36.6458 14.6538 34.6727 10.6393 31.6221 7.74806C28.6018 4.86435 24.5115 3.10378 19.9962 3.10378C15.4885 3.10378 11.3906 4.86435 8.36273 7.74047C5.31208 10.6318 3.34661 14.6462 3.11136 19.1159V19.1387C3.10377 19.3663 3.09618 19.6547 3.09618 20.0038C3.09618 20.8537 3.15689 21.6809 3.27072 22.4777C3.39973 23.2973 3.57427 24.1017 3.80952 24.8757Z" fill="url(#paint0_linear_89_230)"/>
</g>
<path d="M50 28.9999V9H63.0113V12.0398H53.6221V17.4659H62.3295V20.5056H53.6221V25.9601H63.0823V28.9999H50Z" fill="white"/>
<path d="M69.4461 14L72.4716 19.5397L75.554 14H79.2898L74.7728 21.5L79.375 28.9999H75.6535L72.4859 23.6022L69.3467 28.9999H65.5967L70.1563 21.5L65.6961 14H69.4461Z" fill="white"/>
<path d="M82.0312 34.625V14.0001H85.5113V16.4859H85.7102C85.8949 16.1166 86.1505 15.733 86.4773 15.3211C86.804 14.9092 87.2585 14.5541 87.8267 14.2558C88.3949 13.9575 89.1193 13.8154 90 13.8154C91.1647 13.8154 92.2017 14.1137 93.1392 14.6961C94.0766 15.2785 94.8153 16.1592 95.3693 17.3097C95.9232 18.4603 96.1931 19.8665 96.1931 21.5285C96.1931 23.1762 95.9232 24.5824 95.3835 25.733C94.8437 26.8835 94.1051 27.7642 93.1818 28.375C92.2443 28.9858 91.1931 29.2841 90.0142 29.2841C89.1477 29.2841 88.4375 29.1421 87.8693 28.858C87.3011 28.5739 86.8466 28.2188 86.5057 27.821C86.1648 27.4091 85.8949 27.0256 85.7102 26.6705H85.5682V34.6534H82.0312V34.625ZM85.4971 21.5001C85.4971 22.466 85.6392 23.3182 85.9091 24.0427C86.179 24.7671 86.5909 25.3353 87.1165 25.7472C87.642 26.1591 88.2812 26.358 89.0199 26.358C89.8011 26.358 90.4545 26.1449 90.9801 25.733C91.5056 25.3069 91.9034 24.7387 92.1732 24C92.4431 23.2614 92.5852 22.4375 92.5852 21.5001C92.5852 20.5626 92.4573 19.7387 92.1875 19.0143C91.9176 18.2898 91.5198 17.7217 90.9943 17.3097C90.4687 16.8978 89.8153 16.6989 89.0199 16.6989C88.267 16.6989 87.6278 16.8978 87.1023 17.2955C86.5767 17.6933 86.179 18.2472 85.9091 18.9717C85.625 19.6819 85.4971 20.5341 85.4971 21.5001Z" fill="white"/>
<path d="M105.753 29.2983C104.29 29.2983 103.011 28.9716 101.946 28.3324C100.867 27.6932 100.043 26.7841 99.4461 25.6336C98.8637 24.4688 98.5654 23.1194 98.5654 21.5711C98.5654 20.0228 98.8637 18.6592 99.4461 17.4944C100.028 16.3296 100.867 15.4205 101.946 14.7813C103.026 14.1421 104.29 13.8154 105.753 13.8154C107.216 13.8154 108.494 14.1421 109.56 14.7813C110.639 15.4205 111.463 16.3296 112.06 17.4944C112.642 18.6592 112.94 20.0228 112.94 21.5711C112.94 23.1194 112.642 24.4688 112.06 25.6336C111.477 26.7983 110.639 27.6932 109.56 28.3324C108.48 28.9716 107.216 29.2983 105.753 29.2983ZM105.767 26.4574C106.563 26.4574 107.23 26.2443 107.756 25.804C108.281 25.3637 108.693 24.7671 108.949 24.0285C109.205 23.2898 109.347 22.466 109.347 21.5427C109.347 20.6194 109.219 19.7955 108.949 19.0427C108.679 18.304 108.281 17.7075 107.756 17.2671C107.216 16.8268 106.563 16.5995 105.767 16.5995C104.957 16.5995 104.276 16.8268 103.736 17.2671C103.196 17.7075 102.798 18.304 102.528 19.0427C102.259 19.7813 102.131 20.6194 102.131 21.5427C102.131 22.4518 102.259 23.2756 102.528 24.0285C102.798 24.7671 103.196 25.3637 103.736 25.804C104.276 26.2443 104.957 26.4574 105.767 26.4574Z" fill="white"/>
<path d="M128.494 14L122.94 28.9999H120.596L115.042 14H117.542L121.69 25.9602H121.846L125.994 14H128.494Z" fill="white"/>
<path d="M137.286 29.3121C135.838 29.3121 134.602 28.9854 133.551 28.3462C132.5 27.707 131.704 26.8121 131.136 25.6473C130.568 24.4968 130.298 23.1473 130.298 21.6132C130.298 20.0792 130.582 18.7155 131.136 17.5508C131.704 16.3718 132.485 15.4627 133.494 14.7951C134.502 14.1275 135.696 13.8008 137.045 13.8008C137.826 13.8008 138.593 13.9286 139.36 14.1985C140.127 14.4542 140.809 14.8803 141.434 15.4627C142.059 16.0451 142.556 16.8121 142.926 17.778C143.295 18.7297 143.48 19.9087 143.48 21.3149V22.2951H131.917V20.3064H141.136C141.136 19.4542 140.965 18.7013 140.639 18.0337C140.298 17.3661 139.829 16.8405 139.218 16.457C138.607 16.0735 137.883 15.8746 137.045 15.8746C136.122 15.8746 135.34 16.1019 134.673 16.5565C134.005 17.011 133.494 17.5934 133.139 18.3178C132.784 19.0422 132.599 19.8093 132.599 20.6473V21.9826C132.599 23.1189 132.798 24.0706 133.196 24.8661C133.593 25.6473 134.133 26.2439 134.843 26.6558C135.554 27.0678 136.363 27.2666 137.301 27.2666C137.911 27.2666 138.451 27.1814 138.948 27.0109C139.446 26.8405 139.872 26.5848 140.227 26.2297C140.582 25.8746 140.866 25.4485 141.051 24.9229L143.281 25.5479C143.039 26.3007 142.656 26.9683 142.102 27.5365C141.548 28.1047 140.866 28.545 140.056 28.8717C139.204 29.1558 138.295 29.3121 137.286 29.3121Z" fill="white"/>
<path d="M149.318 19.9797V28.9996H147.017V13.9996H149.247V16.3434H149.446C149.801 15.5763 150.326 14.9655 151.051 14.4968C151.761 14.0281 152.698 13.8008 153.821 13.8008C154.843 13.8008 155.724 14.0138 156.491 14.4258C157.258 14.8377 157.84 15.4627 158.267 16.3008C158.693 17.1388 158.906 18.19 158.906 19.4684V28.9996H156.605V19.6246C156.605 18.4456 156.292 17.5224 155.681 16.8689C155.071 16.2013 154.232 15.8746 153.167 15.8746C152.429 15.8746 151.775 16.0309 151.193 16.3576C150.61 16.6701 150.156 17.1388 149.829 17.7496C149.474 18.3604 149.318 19.0991 149.318 19.9797Z" fill="white"/>
<path d="M169.63 14V15.9602H161.86V14H169.63ZM164.119 10.4062H166.42V24.7102C166.42 25.3636 166.519 25.8465 166.704 26.1732C166.903 26.4999 167.144 26.713 167.443 26.8124C167.741 26.9119 168.068 26.9687 168.409 26.9687C168.664 26.9687 168.877 26.9545 169.034 26.9261C169.19 26.8976 169.332 26.8692 169.431 26.855L169.9 28.9289C169.744 28.9857 169.531 29.0425 169.247 29.1136C168.963 29.1704 168.607 29.213 168.181 29.213C167.528 29.213 166.889 29.0709 166.278 28.7868C165.653 28.5028 165.142 28.0766 164.73 27.5084C164.318 26.9403 164.119 26.2158 164.119 25.3352V10.4062Z" fill="white"/>
<defs>
<linearGradient id="paint0_linear_89_230" x1="20.0038" y1="0" x2="20.0038" y2="40" gradientUnits="userSpaceOnUse">
<stop stop-color="#F7426F"/>
<stop offset="1" stop-color="#F87A58"/>
</linearGradient>
<clipPath id="clip0_89_230">
<rect width="40" height="40" fill="white"/>
</clipPath>
</defs>
</svg>
